<svg id="Layer_1" data-name="Layer 1" xmlns="http://www.w3.org/2000/svg" xmlns:xlink="http://www.w3.org/1999/xlink" width="265.494" height="84.515" viewBox="0 0 265.494 84.515">
  <defs>
    <linearGradient id="linear-gradient" x1="0.884" y1="0.376" x2="-0.117" y2="-0.201" gradientUnits="objectBoundingBox">
      <stop offset="0" stop-color="#fff"/>
      <stop offset="0.24" stop-color="#c9c9c9"/>
      <stop offset="0.49" stop-color="#989898"/>
      <stop offset="0.71" stop-color="#747474"/>
      <stop offset="0.89" stop-color="#5e5e5e"/>
      <stop offset="1" stop-color="#565656"/>
    </linearGradient>
  </defs>
  <path id="Path_718" data-name="Path 718" d="M94.083,130.392l46.123-50.719L73.22,65.09Z" transform="matrix(0.999, -0.035, 0.035, 0.999, -63.012, -50.581)" fill="url(#linear-gradient)"/>
  <path id="Path_719" data-name="Path 719" d="M210.366,62.931a61.747,61.747,0,0,1,6.088-1.6,32.69,32.69,0,0,1,9.413-.046,14.8,14.8,0,0,1,4.11.894c-2.007.272-3.923.281-5.769.721a20.974,20.974,0,0,0-5.127,1.442,1.2,1.2,0,0,0-1.2.452c-1.344.173-2.4,1.019-3.605,1.522a13.3,13.3,0,0,0-2.973,2.122,12.105,12.105,0,0,0-4.086,7.785,15.384,15.384,0,0,0,.611,6.115,22.265,22.265,0,0,0,2.334,5.783c.942,2.259,2.06,4.435,3.194,6.6l.392.829a63.026,63.026,0,0,1,4.79,11.17,11.847,11.847,0,0,1-4.216,13.405,34.451,34.451,0,0,1-13.136,6.233,26.333,26.333,0,0,1-4.7,1c4.44-6.177,8.047-12.48,7.418-20.3a3.544,3.544,0,0,0-.187-1.8l-.574-2a19.485,19.485,0,0,0-1.382-4.281c-1.457-3.786-3.324-7.406-4.178-11.427a21.38,21.38,0,0,1,1.389-13.03,22.142,22.142,0,0,1,7.761-9.458l2.548-1.49C209.626,63.33,210.183,63.453,210.366,62.931Z" transform="translate(-149.253 -46.314)" fill="#f5941f"/>
  <path id="Path_720" data-name="Path 720" d="M655.926,120.679c.543,13.088-9.754,22.335-19.9,23.748a22.836,22.836,0,0,1-18.686-5.706,22.041,22.041,0,0,1-7.451-14.713A23.13,23.13,0,0,1,629.993,98.5a22.7,22.7,0,0,1,17.866,5.418A22.305,22.305,0,0,1,655.926,120.679ZM633,102.575A19.019,19.019,0,1,0,651.946,121.7,18.894,18.894,0,0,0,633,102.575Z" transform="translate(-463.194 -74.708)" fill="#969798"/>
  <path id="Path_721" data-name="Path 721" d="M372.542,120.793c0-7.211.019-14.422-.022-21.621,0-.961.284-1.245,1.219-1.18a38.945,38.945,0,0,1,9.163,1.442,21.1,21.1,0,0,1,14.681,15.412,25.861,25.861,0,0,1-.279,12.98c-2.283,7.692-7.574,12.321-15.1,14.734a29.738,29.738,0,0,1-8.555,1.13c-.93.022-1.13-.284-1.125-1.159C372.556,135.285,372.542,128.033,372.542,120.793Zm4.086,0V138.2c0,.654-.111,1.272.945,1.2,5.492-.392,10.158-2.485,13.186-7.16,4.567-7.06,4.637-14.52.623-21.789-2.86-5.185-7.648-7.745-13.573-8.141-.961-.065-1.2.255-1.2,1.2.046,5.754.026,11.516.024,17.28Z" transform="translate(-282.979 -74.433)" fill="#969798"/>
  <path id="Path_722" data-name="Path 722" d="M832.776,146.2c-1.733,0-3.243-.012-4.752,0-.522,0-.776-.368-1.077-.675q-3.721-3.822-7.434-7.651c-.195-.2-.389-.4-.6-.589a1.547,1.547,0,0,0-1.488-.175c-.584.149-.312.74-.317,1.13-.026,2.322-.046,4.646,0,6.971.017.8-.24,1-1.022,1.01-2.846.022-2.846.05-2.846-2.771q0-20.546-.022-41.1c0-1.017.192-1.372,1.3-1.356,3.327.053,6.656.043,9.742,1.5,5.288,2.5,8.009,6.99,9.42,12.434a15.183,15.183,0,0,1,.87,4.538,19.125,19.125,0,0,1-1.264,5.93c-1.889,4.709-4.918,8.29-9.8,10.057-.776.281-.558.536-.142.961q3.09,3.112,6.153,6.249C830.553,143.747,831.562,144.881,832.776,146.2ZM817.1,118.725v12.739c0,1.214.413,1.634,1.646,1.442,5.319-.781,9.3-3.449,11.124-8.622,1.87-5.288.526-10.17-2.7-14.571-2.2-3-4.995-5.024-8.97-4.9-.916.029-1.13.3-1.122,1.173.046,4.245.022,8.49.019,12.735Z" transform="translate(-617.75 -76.715)" fill="#969798"/>
  <path id="Path_723" data-name="Path 723" d="M913.38,123.726V102.7c0-1.649,0-1.683,1.683-1.632a22.766,22.766,0,0,1,11.391,3.569,20.653,20.653,0,0,1,4.221,3.692,14.319,14.319,0,0,1,3.87,9.7,19.052,19.052,0,0,1-2.644,10.985c-2.67,4.233-6.7,6.473-11.365,7.79a6.518,6.518,0,0,1-.8.24c-.745.1-1.707-.022-2.134.526-.5.637-.18,1.62-.171,2.449a43.217,43.217,0,0,0,.115,5.747c.053.353-.079.416-.332.464a3.535,3.535,0,0,1-.358.026c-3.49.269-3.49.272-3.49-3.185Zm4.052-4.442c0,4.4.014,8.8,0,13.2,0,.829.106,1.142,1.072.863a30.459,30.459,0,0,0,3.178-1.036c8.235-3.387,10.336-10.127,8.389-16.939-1.61-5.61-6.086-8.567-11.583-10.059-.961-.262-1.062.07-1.058.882C917.446,110.561,917.432,114.922,917.432,119.284Z" transform="translate(-693.827 -76.77)" fill="#969798"/>
  <path id="Path_724" data-name="Path 724" d="M513.239,123.154a30.724,30.724,0,0,1,.675-6.384,22.314,22.314,0,0,1,4.468-9.014c3.425-4.454,8.146-6.646,13.585-7.5A20.927,20.927,0,0,1,535.3,100c.639,0,.88.24.808.848a3.011,3.011,0,0,0,0,.361c-.026.877.255,1.961-.159,2.577-.464.687-1.635.214-2.49.324-8.216,1.055-14.388,6.4-15.864,15.143-1.144,6.812.582,12.872,5.769,17.674a16.89,16.89,0,0,0,10.867,4.444c2.2.125,1.844-.24,1.877,1.988v1.562c0,.519-.284.858-.721.733-1.762-.493-3.606-.139-5.379-.7a25.506,25.506,0,0,1-9.374-4.831,20.59,20.59,0,0,1-6.372-10.3A18.983,18.983,0,0,1,513.239,123.154Z" transform="translate(-389.84 -75.964)" fill="#969798"/>
  <path id="Path_725" data-name="Path 725" d="M329.163,136v1.2q0,17,.019,34.012c0,1-.168,1.5-1.291,1.339-.981-.139-2.238.4-2.9-.216s-.137-1.889-.139-2.865c-.031-10.016,0-20.03-.041-30.046a1.646,1.646,0,0,1,1.122-1.822C326.99,137.183,327.988,136.6,329.163,136Z" transform="translate(-246.619 -103.312)" fill="#969798"/>
  <path id="Path_726" data-name="Path 726" d="M996.251,264.24a4.207,4.207,0,0,1-3.822-4.178,4,4,0,0,1,4.262-3.973,4.085,4.085,0,1,1-.44,8.151Z" transform="translate(-753.884 -194.535)" fill="#969798"/>
  <path id="Path_727" data-name="Path 727" d="M1066.521,36.291c-.12,3.889-2.332,5.968-5.973,6.069a5.848,5.848,0,0,1-6.038-6.12,6.068,6.068,0,0,1,6.06-6.091A5.887,5.887,0,0,1,1066.521,36.291Zm-6.009,4.887a4.928,4.928,0,1,0,.142-9.855,4.84,4.84,0,0,0-4.968,4.872,4.742,4.742,0,0,0,4.819,4.973Z" transform="translate(-801.037 -22.901)" fill="#969798"/>
  <path id="Path_728" data-name="Path 728" d="M116.393,230.574a2.049,2.049,0,0,1-.091,1.147,42.525,42.525,0,0,0-4.4,4.872c-2.74,3.081-5.406,6.225-8.071,9.374-.615.721-.882.4-1.1-.24-.584-1.764-1.1-3.553-1.716-5.307-2.675-7.605-5.384-15.2-8.067-22.806-.529-1.5-1-3.021-1.5-4.533h.68a4.218,4.218,0,0,0,.1.466q4.454,12.7,8.91,25.4c.736,2.1,1.49,4.182,2.307,6.471,1.875-2.163,3.605-4.194,5.358-6.2Q112.588,234.886,116.393,230.574Z" transform="translate(-69.468 -161.864)" fill="#969798"/>
  <path id="Path_729" data-name="Path 729" d="M271.206,75.482a1.2,1.2,0,0,1,1.2-.452c3.351.582,6.663,1.353,10.071,1.659,1.149.1,2.332.586,3.529.776,1.293.2,2.577.457,3.865.68.308.053.721-.043.868.276.166.387-.24.63-.464.885-3.262,3.779-6.55,7.535-9.795,11.331-1.923,2.247-3.654,4.675-5.7,6.8-2.187,2.269-4.146,4.723-6.249,7.057-.507.562-.961,1.163-1.457,1.747-.13-.276-.262-.553-.394-.832a2.609,2.609,0,0,0,1.067-.93l16.116-18.693q2.74-3.178,5.471-6.358c.339-.392.589-.721-.24-.808-.909-.1-1.805-.305-2.706-.464Z" transform="translate(-202.579 -56.995)" fill="#969798"/>
  <path id="Path_730" data-name="Path 730" d="M34.38,47.894c-.4.06-.5-.324-.738-.5-.7-2.271-1.565-4.488-2.447-6.711-1.089-2.74-1.889-5.6-2.815-8.4-.149-.452-.3-.906-.462-1.356-.375-1.055-.269-1.226.81-1.034,5.687,1,11.362,2.1,17.066,3.021,2.591.418,5.194.839,7.793,1.2,3.057.44,6.117,1.1,9.151,1.776,0,.214-.046.409-.293.481l-6.949-1.2q-12.891-2.245-25.784-4.495c-1.142-.2-1.26-.091-.858,1.06,1.3,3.728,2.63,7.451,3.913,11.179A32.408,32.408,0,0,1,34.38,47.894Z" transform="translate(-21.059 -22.657)" fill="#969798"/>
  <path id="Path_731" data-name="Path 731" d="M218.207,245.27a3.552,3.552,0,0,1,.188,1.8,11.038,11.038,0,0,0-2.824,3.565l.014-4.387c.361.767,0,1.613.337,2.752C216.635,247.51,218.3,247.005,218.207,245.27Z" transform="translate(-163.754 -186.317)" fill="#969798"/>
  <path id="Path_732" data-name="Path 732" d="M233.76,65.848c.272-.361.507-.772,1.055-.721,1.171.8,2.618.5,3.87.961-.183.522-.74.4-1.091.632C236.416,65.987,235.034,66.148,233.76,65.848Z" transform="translate(-177.572 -49.471)" fill="#969798"/>
  <path id="Path_733" data-name="Path 733" d="M64.33,135.31c.24.493,1,.24,1.18.812-.286.228-.159.481-.06.748.351.961.68,1.945,1.017,2.916l-1.332-.406c.7-.156.322-.56.209-.906Q64.837,136.894,64.33,135.31Z" transform="translate(-48.867 -102.788)" fill="#969798"/>
  <path id="Path_734" data-name="Path 734" d="M179.205,340l-.055.084c.022-.024.041-.05.063-.077Z" transform="translate(-136.088 -258.277)" fill="#6fcff5"/>
  <path id="Path_735" data-name="Path 735" d="M215.5,246.17a.744.744,0,0,1,.058.127s-.041.029-.062.046A.24.24,0,0,1,215.5,246.17Z" transform="translate(-163.688 -187.001)" fill="#c8c9c8"/>
  <path id="Path_736" data-name="Path 736" d="M55.366,105a1.293,1.293,0,0,1,.087.161s-.048.043-.075.065A.4.4,0,0,1,55.366,105Z" transform="translate(-42.049 -79.763)" fill="#969798"/>
  <path id="Path_737" data-name="Path 737" d="M318.056,104c-.961-2.187-1.793-4.072-2.618-5.956-.048-.108-.132-.255-.1-.337.447-.961,1.536-.815,2.279-1.279.3-.19.721-.5,1.043,0,.649,1.031,1.671,1.884.839,3.4A26.6,26.6,0,0,0,318.056,104Z" transform="translate(-239.538 -73.05)" fill="#969798"/>
  <path id="Path_738" data-name="Path 738" d="M1074.49,48.674a1.083,1.083,0,0,1-1.57-.644,5.484,5.484,0,0,0-1.226-1.764,1.159,1.159,0,0,0-1.12-.272c-.5.135-.3.584-.32.911-.031.44,0,.882,0,1.322,0,.315-.082.543-.462.553s-.543-.132-.543-.481V42.53c0-.365.272-.452.582-.442.839.024,1.683,0,2.514.091.947.1,1.682.517,1.759,1.613.072,1.024-.3,1.514-1.572,2.012a10.717,10.717,0,0,1,1.957,2.87Zm-3.125-3.687c.755.022,1.627.058,1.646-.921.022-1.06-.885-.993-1.661-1.038s-1.135.089-1.132,1,.413,1.07,1.134.954Z" transform="translate(-812.239 -31.972)" fill="#969798"/>
  <path id="Path_739" data-name="Path 739" d="M52.081,127.443a61.985,61.985,0,0,1-1.608,6.086,32.73,32.73,0,0,1-4.6,8.211,14.435,14.435,0,0,1-2.805,3.125c.755-1.88,1.683-3.55,2.219-5.382a20.931,20.931,0,0,0,1.269-5.173,1.194,1.194,0,0,0,.195-1.262c.512-1.255.3-2.6.457-3.892a13.326,13.326,0,0,0-.382-3.632,12.118,12.118,0,0,0-4.757-7.394,15.448,15.448,0,0,0-5.622-2.466,21.53,21.53,0,0,0-6.182-.82c-2.43-.293-4.872-.394-7.317-.481l-.916-.067a63.2,63.2,0,0,1-12.078-1.339A11.83,11.83,0,0,1,.364,102.685a34.463,34.463,0,0,1,1.053-14.5A27.161,27.161,0,0,1,2.859,83.6c3.187,6.908,6.891,13.155,14.008,16.46.536.272.988.738,1.654.721l2.024.481a19.327,19.327,0,0,0,4.406.909c4.012.6,8.086.76,12,2a21.476,21.476,0,0,1,10.66,7.648,22.1,22.1,0,0,1,4.413,11.42q.022,1.473.041,2.952C52.1,126.611,51.718,127.034,52.081,127.443Z" transform="translate(0.002 -63.507)" fill="#6fcff5"/>
  <path id="Path_740" data-name="Path 740" d="M30.556,32.525A62.762,62.762,0,0,1,26.177,28a32.661,32.661,0,0,1-4.651-8.172A14.629,14.629,0,0,1,20.29,15.81c1.221,1.615,2.163,3.281,3.461,4.68a20.545,20.545,0,0,0,3.774,3.759c.212.409.449.791.978.82.81,1.086,2.067,1.6,3.1,2.4a13.285,13.285,0,0,0,3.305,1.55,12.1,12.1,0,0,0,8.79-.252,15.42,15.42,0,0,0,5.024-3.529,22.026,22.026,0,0,0,3.9-4.87C54.121,18.45,55.47,16.4,56.8,14.363l.531-.75a63.167,63.167,0,0,1,7.389-9.648A11.832,11.832,0,0,1,78.473,1.05a34.463,34.463,0,0,1,11.872,8.4,26.474,26.474,0,0,1,3.175,3.605c-7.562-.844-14.823-.9-21.332,3.483-.51.322-1.142.466-1.473,1.043l-1.459,1.49a19.9,19.9,0,0,0-3.053,3.3c-2.586,3.125-4.829,6.528-7.915,9.242a21.41,21.41,0,0,1-12.037,5.173,22.3,22.3,0,0,1-12.064-2.127l-2.553-1.483C31.258,32.975,31.092,32.429,30.556,32.525Z" transform="translate(-15.413 -0.005)" fill="#8dc641"/>
</svg>
