<svg xmlns="http://www.w3.org/2000/svg" width="248.283" height="91" viewBox="0 0 248.283 91">
  <g id="Layer_2" data-name="Layer 2" transform="translate(-3.062 -38.547)">
    <g id="Layer_1" data-name="Layer 1" transform="translate(-0.005 -0.038)">
      <rect id="Rectangle_9782" data-name="Rectangle 9782" width="87" height="87" rx="10" transform="translate(3.066 38.585)" fill="#fff"/>
      <path id="Path_2230" data-name="Path 2230" d="M255.162,96.918c0-8.475.054-16.95-.036-25.424,0-2.082.605-2.857,2.742-2.809,7.216.182,5.944-.726,5.975,5.86q.109,19.656,0,39.317c0,2.282.315,3.481,3.075,3.475s3.329-1.065,3.305-3.59c-.1-13.923,0-27.846-.091-41.739,0-2.343.387-3.45,3.1-3.341,6.568.254,5.448-.605,5.448,5.448q.079,19.807,0,39.62c0,2.076-.121,3.662,2.869,3.632,2.694-.054,3.4-.908,3.372-3.523-.121-13.923,0-27.846-.115-41.769,0-2.615.605-3.523,3.335-3.42,5.345.206,5.351.042,5.351,5.527v43.252c0,6.356-1.883,8.227-8.33,8.263-8.971.054-17.948-.042-26.92.067-2.385,0-3.154-.793-3.124-3.16C255.228,114.062,255.162,105.49,255.162,96.918Z" transform="translate(-100.681 -27.069)" fill="#fff"/>
      <path id="Path_2231" data-name="Path 2231" d="M229.9,99.822V77.14a24.756,24.756,0,0,0-.363-3.892,5.258,5.258,0,0,0-5.115-4.71,68.676,68.676,0,0,0-12.373,0c-2.73.242-4.316,1.895-4.988,4.522a19.134,19.134,0,0,0-.454,4.8V120.5c0,6.053-.666,5.345,5.515,5.545,2.621.079,3.251-.944,3.2-3.36-.121-6.75.042-13.511-.085-20.261-.042-2.367,1-2.869,3.075-2.936,2.27-.067,3.027.787,2.954,3.027-.109,6.053-.036,12.107-.036,18.16,0,5.406,0,5.291,5.394,5.4,2.458.048,3.384-.66,3.335-3.233C229.839,115.149,229.9,107.486,229.9,99.822ZM217.914,90.5c-1.816-.121-2.833-.49-2.772-2.555.1-3.027.115-6.053,0-9.08-.091-2.458,1.423-2.421,3.16-2.421,1.816,0,3.233.176,3.057,2.542-.109,1.5,0,3.027,0,4.534a30.166,30.166,0,0,0,0,3.632C221.7,89.895,220.529,90.688,217.914,90.5Z" transform="translate(-81.527 -26.916)" fill="#fff"/>
      <path id="Path_2232" data-name="Path 2232" d="M181.613,75.317c-.042-4.782-2.391-6.81-7.264-6.895-4.237-.073-8.475.1-12.712-.067-2.458-.1-3.087.847-3.057,3.178.115,8.475.048,16.95.048,25.388,0,8.771.042,17.555-.03,26.3,0,2.07.654,2.887,2.791,2.821,4.237-.127,8.475,0,12.712-.061,4.9-.1,7.482-2.318,7.53-7.137Q181.837,97.085,181.613,75.317Zm-8.251,29.571c0,3.124-.042,6.247,0,9.365.042,2.651-1.665,2.7-3.632,2.8-2.228.109-2.712-.89-2.676-2.887.1-5.739.036-11.5.036-17.222s.054-11.5,0-17.216c-.03-1.937.309-3.027,2.609-2.924,2.155.079,3.741.242,3.717,3.027C173.307,88.175,173.362,96.534,173.362,104.888Z" transform="translate(-62.581 -26.951)" fill="#fff"/>
      <path id="Path_2233" data-name="Path 2233" d="M351.824,74.764c0-3.741-2.343-5.993-6.053-6.15-2.082-.091-4.171-.1-6.253-.079h-3.124c-5.363.042-7.53,2.155-7.555,7.47-.036,7.664,0,15.327,0,23,0,7.264-.03,14.528,0,21.792.036,6.223-.672,5.055,5.3,5.339,2.651.127,3.2-.9,3.154-3.305-.139-6.55.1-13.106-.115-19.656-.079-2.373.605-3.251,2.349-3.535a9.458,9.458,0,0,1,1.259-.1c2.894-.085,2.712,1.544,2.7,3.45-.03,5.745-.085,11.5,0,17.24.115,6.865-1.423,5.7,6.175,5.884,1.816.042,2.24-.757,2.24-2.349C351.861,107.428,351.933,91.1,351.824,74.764ZM343.483,79c-.145,1.489-.03,3.027-.03,4.516v3.311c0,3.947,0,3.911-3.947,3.759h-.1c-1.762-.067-2.228-.805-2.2-2.421.067-3.111.133-6.229,0-9.334-.1-2.191,1.017-2.361,2.312-2.421.357,0,.732,0,1.1-.036,1.931-.079,3.093.363,2.845,2.657Z" transform="translate(-129.769 -27.021)" fill="#fff"/>
      <path id="Path_2234" data-name="Path 2234" d="M400.077,107.61c0-10.581.036-21.187,0-31.75-.03-5.012-2.24-7.191-7.173-7.264-2.718-.048-5.448,0-8.166,0-5.642.042-7.664,2.01-7.688,7.579v23c0,7.264-.036,14.528,0,21.792.036,6.017-.757,5.006,5.388,5.236,2.367.085,3.166-.605,3.111-3.027-.151-6.853.085-13.711-.115-20.582-.085-2.682,1.156-2.9,3.239-2.948s3.081.563,3.027,2.9c-.139,5.944-.1,11.9-.03,17.84.079,6.592-1.211,5.642,6.053,5.787,1.883.042,2.458-.69,2.421-2.482C400.016,118.295,400.083,112.956,400.077,107.61Zm-11.6-16.986c-1.743.061-3.257.067-3.027-2.421.151-1.592.03-3.208.03-4.843a22.285,22.285,0,0,0-.03-3.305c-.442-3.027.914-3.82,3.723-3.559,1.737.163,2.548.605,2.488,2.47-.1,3.105-.133,6.223,0,9.322C391.771,90.921,390.076,90.552,388.472,90.624Z" transform="translate(-148.795 -27.04)" fill="#fff"/>
      <path id="Path_2236" data-name="Path 2236" d="M236.577,170.585H312.2c.805,0,1.749-.048,1.653,1.174-.079.969-.9.926-1.6.95-.805.03-1.616,0-2.421,0q-73.658,0-147.311-.036c-1.326,0-3.741.823-3.759-1,0-1.949,2.421-1.065,3.7-1.065Q199.524,170.543,236.577,170.585Z" transform="translate(-62.653 -67.23)" fill="#fff"/>
      <g id="Group_367" data-name="Group 367" transform="translate(24.957 51.991)">
        <path id="Path_2235" data-name="Path 2235" d="M108,137.461c3.811-4.257,8.22-7.151,11.916-11.051a6.761,6.761,0,0,1,.169,2.377c.021,2.466,0,4.934,0,7.4,0,.609.03,1.26-.844,1.263C115.656,137.467,112.064,137.461,108,137.461Z" transform="translate(-75.914 -88.845)" fill="#ed2c34"/>
        <path id="Path_2238" data-name="Path 2238" d="M37.91,15.458A45.862,45.862,0,0,1,29.5,9.413,6.536,6.536,0,0,0,27.824,8.2a19.673,19.673,0,0,1-6.69-5.273,1.86,1.86,0,0,0-1.566-.621c-2.427,0-4.851.018-7.278-.033a7.359,7.359,0,0,1-3.678-.927,1.56,1.56,0,0,0-1.747.119l-.024.018a1.753,1.753,0,0,0-.654,1.723A9.485,9.485,0,0,1,6.83,5.471a.253.253,0,0,0,.107.226c.728.446,1.759.2,2.353.731.119.3,1.061.761,1.26.909,3.318,2.454,6.631,4.816,11.125,4.456a5.582,5.582,0,0,1,4.18,1.931c4.011,3.809,8.039,7.608,12.789,10.543a6.444,6.444,0,0,1,2.053,2.1c1.349,2.13,1.337,2.341-.487,4.123-5.1,4.982-10.573,9.53-16.116,13.992a58.357,58.357,0,0,1-12.51,8.2l-.184.08-.074.036-.229.1c-1.135.514-3.993,1.649-5.282.758C4.9,53.018.989,49.815.612,33.868c0,0-3.708,24.824,7.064,27.925a6.252,6.252,0,0,0,3.675-.208l.051-.018c.535-.217,1.052-.425,1.554-.633a20.578,20.578,0,0,0,5.588-3.11c7.483-6.167,14.171-13.573,21.574-19.842,3.11-2.632,3.544-6.678,3.918-10.579C44.558,22.08,42.71,18.088,37.91,15.458ZM19.818,4.363c-.505-.193-1.337-.11-1.352-.867,0-.576.567-.755,1.111-.671a1.173,1.173,0,0,1,1.1.85C20.6,4.363,20.213,4.5,19.818,4.363Z" transform="translate(0.005 -0.787)" fill="#12874a"/>
        <path id="Path_2241" data-name="Path 2241" d="M11.367,1.474l2.472.241L13.277,2.8l-2.056-.374-1,.746a.466.466,0,0,1-.66-.11h0a.351.351,0,0,1,.089-.487l1.022-.7L9.4.865A.508.508,0,0,1,9.374.083h0a.425.425,0,0,1,.594,0Z" transform="translate(-6.467 0.038)" fill="#0b8445"/>
      </g>
      <text id="CARE_EXPERTS" data-name="CARE EXPERTS" transform="translate(93.066 124.585)" fill="#fff" font-size="21" font-family="MyriadPro-Bold, Myriad Pro" font-weight="700" letter-spacing="0.1em"><tspan x="0" y="0">C</tspan><tspan y="0" letter-spacing="0.09em">ARE EXPER</tspan><tspan y="0" letter-spacing="0.08em">T</tspan><tspan y="0" letter-spacing="0.09em">S</tspan></text>
    </g>
  </g>
</svg>
