<svg xmlns="http://www.w3.org/2000/svg" width="247.76" height="103.501" viewBox="0 0 247.76 103.501">
  <g id="Layer_2" data-name="Layer 2" transform="translate(0)">
    <g id="Layer_1" data-name="Layer 1" transform="translate(0)">
      <rect id="Rectangle_9782" data-name="Rectangle 9782" width="103.501" height="103.501" rx="10" transform="translate(144.259)" fill="#fff"/>
      <path id="Path_2236" data-name="Path 2236" d="M68.453,60.854h66.514c.714,0,1.547,0,1.463,1.035-.071.857-.8.809-1.416.833s-1.416,0-2.13,0H3.307c-1.19,0-3.3.714-3.307-.88s2.13-.94,3.26-.94Q35.868,60.83,68.453,60.854Z" transform="translate(0 11.526)" fill="#fff"/>
      <g id="Group_367" data-name="Group 367" transform="translate(170.293 15.975)">
        <path id="Path_2235" data-name="Path 2235" d="M175.24,64.1c4.533-5.068,9.779-8.506,14.181-13.146a8.4,8.4,0,0,1,.2,2.831v8.8c0,.726,0,1.5-1.011,1.5C184.353,64.1,180.07,64.1,175.24,64.1Z" transform="translate(-137.056 -6.311)" fill="#ed2c34"/>
        <path id="Path_2238" data-name="Path 2238" d="M188.263,30.79a54.582,54.582,0,0,1-10.005-7.138,7.709,7.709,0,0,0-1.975-1.5,23.5,23.5,0,0,1-7.959-6.27,2.165,2.165,0,0,0-1.856-.738h-8.661a8.792,8.792,0,0,1-4.378-1.094,1.856,1.856,0,0,0-2.082.131h0a2.082,2.082,0,0,0-.773,2.058,11.587,11.587,0,0,1,.761,2.689.3.3,0,0,0,.131.274c.857.523,2.094.238,2.8.868.143.357,1.261.9,1.5,1.083,3.95,2.915,7.887,5.722,13.229,5.294A6.638,6.638,0,0,1,173.9,28.72c4.759,4.533,9.517,9.053,15.216,12.551a7.685,7.685,0,0,1,2.451,2.5c1.606,2.534,1.582,2.784-.583,4.9-6.067,5.948-12.575,11.338-19.177,16.655a69,69,0,0,1-14.883,9.755l-.214.1h-.083l-.274.119c-1.356.607-4.759,1.963-6.293.9-1.083-.761-5.734-4.58-6.186-23.544,0,0-4.414,29.528,8.411,33.215a7.4,7.4,0,0,0,4.366-.25h.059l1.856-.761a24.578,24.578,0,0,0,6.638-3.7c8.911-7.328,16.858-16.144,25.673-23.6,3.7-3.129,4.211-7.947,4.663-12.587C196.175,38.665,193.974,33.919,188.263,30.79Zm-21.5-13.182c-.607-.226-1.594-.131-1.606-1.023,0-.69.666-.9,1.321-.809a1.416,1.416,0,0,1,1.309,1.011C167.67,17.608,167.206,17.751,166.766,17.608Z" transform="translate(-143.143 -13.359)" fill="#12874a"/>
        <path id="Path_2241" data-name="Path 2241" d="M148.454,15.2l2.95.286-.631,1.285-2.439-.44-1.19.892a.559.559,0,0,1-.773-.119h0a.416.416,0,0,1,.107-.583l1.19-.833-1.511-1.19a.595.595,0,0,1-.107-.845l.071-.083h0a.512.512,0,0,1,.714,0Z" transform="translate(-142.616 -13.428)" fill="#0b8445"/>
      </g>
      <path id="Path_2340" data-name="Path 2340" d="M32.066,22.92h-7.65a10.576,10.576,0,0,0-4.009,1.011,9.089,9.089,0,0,0-2.855,2.141,8.732,8.732,0,0,0-1.689,2.867A9.589,9.589,0,0,0,15.3,32.2a17.274,17.274,0,0,0,.476,4.057A16.132,16.132,0,0,0,17.1,39.826a9.172,9.172,0,0,0,1.963,2.57,3.664,3.664,0,0,0,2.451.987H38.8v7.328H2.42V43.442h8.459A22.6,22.6,0,0,1,8.7,38.089a22.045,22.045,0,0,1-.773-5.829,20.9,20.9,0,0,1,.892-6.091,14.633,14.633,0,0,1,2.831-5.33A14.181,14.181,0,0,1,16.7,17.091a18.678,18.678,0,0,1,7.531-1.511h7.84Z" transform="translate(0.459 2.955)" fill="#fff" stroke="#fff" stroke-width="1"/>
      <path id="Path_2341" data-name="Path 2341" d="M47.176,1.23v52.2H39.8V1.23Z" transform="translate(7.549 0.233)" fill="#fff" stroke="#fff" stroke-width="1"/>
      <path id="Path_2342" data-name="Path 2342" d="M58.334,58.369H69.9a9.672,9.672,0,0,0,3.2-.547,9.85,9.85,0,0,0,2.76-1.511,10.136,10.136,0,0,0,2.153-2.3A9.149,9.149,0,0,0,79.2,51.1H64.806a11.635,11.635,0,0,1-4.64-.928A11.968,11.968,0,0,1,53.8,43.831a11.54,11.54,0,0,1-.952-4.652V30.852a17.133,17.133,0,0,1,1.369-6.711,17.678,17.678,0,0,1,3.568-5.507,17.048,17.048,0,0,1,5.4-3.724,16.417,16.417,0,0,1,11.135-.738,17.226,17.226,0,0,1,4.057,1.784,18.083,18.083,0,0,1,3.45,2.736,17.179,17.179,0,0,1,4.39,7.566,16.382,16.382,0,0,1,.595,4.449V48.744a16.5,16.5,0,0,1-1.332,6.6,17.131,17.131,0,0,1-3.569,5.389,17.321,17.321,0,0,1-5.4,3.569,16.477,16.477,0,0,1-6.591,1.332H58.334ZM79.487,43.831V30.744a9.6,9.6,0,0,0-.761-3.759,9.862,9.862,0,0,0-2.082-3.129,9.981,9.981,0,0,0-3.081-2.129,8.946,8.946,0,0,0-3.747-.8,9.16,9.16,0,0,0-3.724.773,9.517,9.517,0,0,0-3.046,2.141,10.088,10.088,0,0,0-2.058,3.176,10.219,10.219,0,0,0-.761,3.926v8.328a4.449,4.449,0,0,0,.369,1.761,4.759,4.759,0,0,0,2.451,2.451,4.449,4.449,0,0,0,1.761.345Z" transform="translate(10.024 2.566)" fill="#fff" stroke="#fff" stroke-width="1"/>
      <path id="Path_2343" data-name="Path 2343" d="M90.414,13.5a50.109,50.109,0,0,1,11.492,1.19,21.711,21.711,0,0,1,7.816,3.379,13.205,13.205,0,0,1,4.461,5.484,18.452,18.452,0,0,1,1.416,7.483v8.221a11.528,11.528,0,0,1-.94,4.652,12.063,12.063,0,0,1-2.605,3.783,12.254,12.254,0,0,1-3.89,2.486,12.087,12.087,0,0,1-4.759.928H88.32V43.837H103.4a4.759,4.759,0,0,0,1.844-.369,5.389,5.389,0,0,0,1.535-.987,4.545,4.545,0,0,0,1.035-1.463,4.449,4.449,0,0,0,.369-1.761V30.965a9.125,9.125,0,0,0-1-4.33,8.185,8.185,0,0,0-3.141-3.176A16.858,16.858,0,0,0,98.515,21.5a43.15,43.15,0,0,0-8.149-.654Z" transform="translate(16.751 2.56)" fill="#fff" stroke="#fff" stroke-width="1"/>
      <path id="Path_2344" data-name="Path 2344" d="M12.887,79.3v1.975H8.795V75.7a2.486,2.486,0,0,0-.19-1.023,3,3,0,0,0-.559-.857,2.617,2.617,0,0,0-.845-.583,2.51,2.51,0,0,0-2.058,0,2.784,2.784,0,0,0-.845.595,3.105,3.105,0,0,0-.559.868,2.7,2.7,0,0,0-.2,1.083v2.272a1.19,1.19,0,0,0,.1.488,1.618,1.618,0,0,0,.274.4,1.618,1.618,0,0,0,.4.274,1.273,1.273,0,0,0,.488.1H7v1.963H4.785a3.248,3.248,0,0,1-1.273-.262,3.355,3.355,0,0,1-1.059-.7,3.176,3.176,0,0,1-.7-1.047,3.248,3.248,0,0,1-.262-1.273V75.768A4.759,4.759,0,0,1,2.858,72.4a4.676,4.676,0,0,1,1.487-1.023,4.485,4.485,0,0,1,3.569,0,4.759,4.759,0,0,1,2.51,2.522,4.663,4.663,0,0,1,.357,1.808v3.569Zm-9.22-11.29a.952.952,0,0,1,.083-.4.987.987,0,0,1,.226-.321.916.916,0,0,1,.333-.226A.857.857,0,0,1,4.7,67a.952.952,0,0,1,.4.083,1.19,1.19,0,0,1,.333.226,1.035,1.035,0,0,1,0,1.451,1.19,1.19,0,0,1-.333.214.952.952,0,0,1-.4.083.857.857,0,0,1-.393-.083.892.892,0,0,1-.333-.214.987.987,0,0,1-.226-.321.952.952,0,0,1-.083-.428Zm3.022,0a1.047,1.047,0,0,1,.3-.726,1.035,1.035,0,0,1,.333-.226.952.952,0,0,1,.4-.059.857.857,0,0,1,.393.083.916.916,0,0,1,.333.226,1.047,1.047,0,0,1,.3.726,1.023,1.023,0,0,1-.3.726.975.975,0,0,1-.726.3.952.952,0,0,1-.4-.083,1,1,0,0,1-.333-.214,1.047,1.047,0,0,1-.3-.726Z" transform="translate(0.283 12.707)" fill="#fff"/>
      <path id="Path_2345" data-name="Path 2345" d="M10.31,77.34h4.58v1.975H10.31Z" transform="translate(1.956 14.669)" fill="#fff"/>
      <path id="Path_2346" data-name="Path 2346" d="M13.41,77.34h4.568v1.975H13.41Z" transform="translate(2.543 14.669)" fill="#fff"/>
      <path id="Path_2347" data-name="Path 2347" d="M16.5,77.34h4.568v1.975H16.5Z" transform="translate(3.13 14.669)" fill="#fff"/>
      <path id="Path_2348" data-name="Path 2348" d="M19.59,77.34h4.568v1.975H19.59Z" transform="translate(3.716 14.669)" fill="#fff"/>
      <path id="Path_2349" data-name="Path 2349" d="M22.68,77.34h4.58v1.975H22.68Z" transform="translate(4.302 14.669)" fill="#fff"/>
      <path id="Path_2350" data-name="Path 2350" d="M25.77,77.34h4.58v1.975H25.77Z" transform="translate(4.888 14.669)" fill="#fff"/>
      <path id="Path_2351" data-name="Path 2351" d="M34.354,70.35v7.019a3.164,3.164,0,0,1-.262,1.3,3.569,3.569,0,0,1-.714,1.047,3.462,3.462,0,0,1-1.059.714,3.355,3.355,0,0,1-1.285.262H28.87V78.666h2.165a1.379,1.379,0,0,0,.5-.1,1.3,1.3,0,0,0,.416-.286,1.31,1.31,0,0,0,.381-.916V70.35ZM29.263,83.674a1.047,1.047,0,0,1,.083-.393,1.071,1.071,0,0,1,.559-.559,1.047,1.047,0,0,1,.393-.083,1.118,1.118,0,0,1,.4.083,1.273,1.273,0,0,1,.333.226,1.094,1.094,0,0,1,.226.333,1.047,1.047,0,0,1,.071.393,1.106,1.106,0,0,1-.071.4,1.047,1.047,0,0,1-.226.321,1.273,1.273,0,0,1-.333.226,1.106,1.106,0,0,1-.4.071,1.047,1.047,0,0,1-.393-.071,1.1,1.1,0,0,1-.333-.226,1.047,1.047,0,0,1-.226-.321,1.118,1.118,0,0,1-.083-.4Zm3.022,0a.857.857,0,0,1,.083-.393.916.916,0,0,1,.226-.333,1.094,1.094,0,0,1,.333-.226,1.047,1.047,0,0,1,.393-.083,1.118,1.118,0,0,1,.4.083,1.094,1.094,0,0,1,.333.226,1.071,1.071,0,0,1,.214.333.857.857,0,0,1,.083.393.964.964,0,0,1-.3.726,1,1,0,0,1-.738.3,1.047,1.047,0,0,1-.393-.071,1.1,1.1,0,0,1-.333-.226.88.88,0,0,1-.226-.321.916.916,0,0,1-.083-.4Z" transform="translate(5.476 13.343)" fill="#fff"/>
      <path id="Path_2352" data-name="Path 2352" d="M37.563,67V78.04a1.38,1.38,0,0,0,.1.5,1.347,1.347,0,0,0,1.19.785H39.8v1.951h-.952a3.355,3.355,0,0,1-1.285-.262,3.569,3.569,0,0,1-1.047-.714,3.26,3.26,0,0,1-.976-2.379V67Z" transform="translate(6.741 12.708)" fill="#fff"/>
      <path id="Path_2353" data-name="Path 2353" d="M48.446,80.648H38.37V78.626h2.058V74.938a4.556,4.556,0,0,1,1.344-3.3,4.39,4.39,0,0,1,1.463-.976,4.628,4.628,0,0,1,1.808-.357,5.258,5.258,0,0,1,2.308.571l-.821,1.844a5.686,5.686,0,0,0-.809-.3,2.07,2.07,0,0,0-.678-.1,2.558,2.558,0,0,0-1.011.19,2.487,2.487,0,0,0-.821.547,2.7,2.7,0,0,0-.559.833,2.617,2.617,0,0,0-.2,1.023v3.7H48.4Z" transform="translate(7.278 13.335)" fill="#fff"/>
      <path id="Path_2354" data-name="Path 2354" d="M52.856,70.35v8.328h2.058v1.963H52.749a8.161,8.161,0,0,1-.321.952,4.759,4.759,0,0,1-.666,1.094,5.949,5.949,0,0,1-1.19,1.095,7.138,7.138,0,0,1-1.749.976L48.05,82.9a6.281,6.281,0,0,0,.94-.488,4.757,4.757,0,0,0,.69-.523,3.9,3.9,0,0,0,.488-.535,4.39,4.39,0,0,0,.321-.512,2.82,2.82,0,0,0,.3-1.19v-9.3Z" transform="translate(9.114 13.343)" fill="#fff"/>
      <path id="Path_2355" data-name="Path 2355" d="M57.341,67V78.04a3.355,3.355,0,0,1-.262,1.285,3.569,3.569,0,0,1-.714,1.047,3.462,3.462,0,0,1-1.059.714,3.355,3.355,0,0,1-1.285.262H53.07V79.325h.94a1.5,1.5,0,0,0,.512-.1,1.332,1.332,0,0,0,.69-.69,1.38,1.38,0,0,0,.1-.5V67Z" transform="translate(10.066 12.708)" fill="#fff"/>
      <path id="Path_2356" data-name="Path 2356" d="M60.742,67V81.276H58.72V67Z" transform="translate(11.137 12.708)" fill="#fff"/>
      <path id="Path_2357" data-name="Path 2357" d="M73.387,72.95H71.282a2.914,2.914,0,0,0-1.106.274,2.819,2.819,0,0,0-.785.583,2.545,2.545,0,0,0-.464.8,2.807,2.807,0,0,0-.155.892,4.437,4.437,0,0,0,.143,1.118,3.937,3.937,0,0,0,.357.976,2.546,2.546,0,0,0,.535.7.976.976,0,0,0,.678.274h4.759V80.54H65.25V78.518h2.379a6.485,6.485,0,0,1-.595-1.475,6.056,6.056,0,0,1-.214-1.594,5.734,5.734,0,0,1,.25-1.677,3.843,3.843,0,0,1,.773-1.44A4.021,4.021,0,0,1,69.235,71.3a5.222,5.222,0,0,1,2.058-.416h2.165Z" transform="translate(12.376 13.444)" fill="#fff"/>
      <path id="Path_2358" data-name="Path 2358" d="M77.722,67V81.276H75.7V67Z" transform="translate(14.358 12.708)" fill="#fff"/>
      <path id="Path_2359" data-name="Path 2359" d="M83.418,70.35v8.328h2.058v1.963H83.3a5.272,5.272,0,0,1-.321.952,4.664,4.664,0,0,1-.654,1.095,6.745,6.745,0,0,1-1.19,1.094,7.317,7.317,0,0,1-1.749.976L78.6,82.9a5.747,5.747,0,0,0,.94-.488,4.306,4.306,0,0,0,.7-.523,4.855,4.855,0,0,0,.488-.535,4.39,4.39,0,0,0,.321-.512,2.82,2.82,0,0,0,.3-1.19v-9.3Z" transform="translate(14.908 13.343)" fill="#fff"/>
      <path id="Path_2360" data-name="Path 2360" d="M83.63,77.34H88.2v1.975H83.63Z" transform="translate(15.862 14.669)" fill="#fff"/>
      <path id="Path_2361" data-name="Path 2361" d="M83.63,77.34H88.2v1.975H83.63Z" transform="translate(15.862 14.669)" fill="#fff"/>
      <path id="Path_2362" data-name="Path 2362" d="M86.72,77.34h4.568v1.975H86.72Z" transform="translate(16.448 14.669)" fill="#fff"/>
      <path id="Path_2363" data-name="Path 2363" d="M89.81,77.34h4.58v1.975H89.81Z" transform="translate(17.034 14.669)" fill="#fff"/>
      <path id="Path_2364" data-name="Path 2364" d="M92.9,77.34h4.58v1.975H92.9Z" transform="translate(17.62 14.669)" fill="#fff"/>
      <path id="Path_2365" data-name="Path 2365" d="M96,77.34h4.568v1.975H96Z" transform="translate(18.208 14.669)" fill="#fff"/>
      <path id="Path_2366" data-name="Path 2366" d="M104.562,70.359v8.328h2.07V80.65H99.09V78.628h3.462V70.3Zm-2.808,13.3a.952.952,0,0,1,.083-.4.845.845,0,0,1,.214-.321,1.273,1.273,0,0,1,.333-.226,1.19,1.19,0,0,1,.4-.071.976.976,0,0,1,.726.3,1.011,1.011,0,0,1,.3.726.857.857,0,0,1-.083.393,1.071,1.071,0,0,1-.214.333,1.1,1.1,0,0,1-.333.226,1.047,1.047,0,0,1-.393.083,1.19,1.19,0,0,1-.4-.083,1.273,1.273,0,0,1-.333-.226.892.892,0,0,1-.214-.333A.857.857,0,0,1,101.755,83.66Z" transform="translate(18.794 13.334)" fill="#fff"/>
      <path id="Path_2367" data-name="Path 2367" d="M106.591,72l.761-.321c.309-.107.654-.226,1.035-.333s.785-.19,1.19-.262a7.138,7.138,0,0,1,1.19-.107,6.9,6.9,0,0,1,1.713.214,3.736,3.736,0,0,1,1.5.761,3.653,3.653,0,0,1,1.059,1.475,5.877,5.877,0,0,1,.4,2.379v2.26a3.034,3.034,0,0,1-.262,1.261,3.377,3.377,0,0,1-3.081,2.011H104.64V79.317H112.1a1.451,1.451,0,0,0,.512-.1,1.678,1.678,0,0,0,.416-.274,1.256,1.256,0,0,0,.393-.892V75.8a3.486,3.486,0,0,0-.238-1.368,2.153,2.153,0,0,0-1.44-1.3,3.843,3.843,0,0,0-.976-.119,5.46,5.46,0,0,0-.964.083,3.481,3.481,0,0,0-.94.2c-.3.083-.571.178-.821.274l-.619.25Zm3.236-3.985a.989.989,0,0,1,.309-.726.916.916,0,0,1,.333-.226.856.856,0,0,1,.393-.083.952.952,0,0,1,.4.083.88.88,0,0,1,.321.226.924.924,0,0,1,.3.726.975.975,0,0,1-.3.726.964.964,0,0,1-.726.3.856.856,0,0,1-.393-.083.892.892,0,0,1-.333-.214.989.989,0,0,1-.309-.726Z" transform="translate(19.847 12.704)" fill="#fff"/>
    </g>
  </g>
</svg>
